<svg width="20" height="20" viewBox="0 0 20 20" fill="none" xmlns="http://www.w3.org/2000/svg">
<path d="M6.41495 4.39843L7.10451 5.63405C7.72682 6.74913 7.47702 8.21191 6.49687 9.19205C6.49687 9.19205 5.30812 10.381 7.46353 12.5365C9.61828 14.6912 10.808 13.5032 10.808 13.5032C11.7881 12.523 13.2509 12.2732 14.366 12.8955L15.6015 13.5851C17.2854 14.5248 17.4842 16.8861 16.0042 18.3661C15.1149 19.2554 14.0254 19.9474 12.8211 19.993C10.7937 20.07 7.35069 19.5569 3.89693 16.1031C0.443202 12.6493 -0.0698996 9.20631 0.00696157 7.17892C0.0526172 5.97458 0.744602 4.88512 1.63392 3.99581C3.11393 2.5158 5.47524 2.71465 6.41495 4.39843Z" fill="white"/>
<path d="M10.01 0.662992C10.0797 0.232575 10.4867 -0.0593982 10.9172 0.0102766C10.9439 0.0153819 11.0297 0.0314032 11.0745 0.0414034C11.1644 0.0614142 11.2897 0.0922042 11.446 0.13771C11.7585 0.228701 12.1951 0.378609 12.719 0.618749C13.7681 1.09956 15.1641 1.94062 16.6127 3.38886C18.0614 4.83709 18.9027 6.2327 19.3836 7.28143C19.6239 7.80525 19.7738 8.24168 19.8648 8.55408C19.9103 8.71031 19.9411 8.8356 19.9611 8.92542C19.9711 8.97033 19.9785 9.0064 19.9836 9.03304L19.9897 9.06588C20.0593 9.49626 19.7699 9.92005 19.3394 9.98974C18.9101 10.0592 18.5056 9.76858 18.4342 9.34025C18.432 9.32868 18.4259 9.29783 18.4195 9.26867C18.4064 9.21036 18.384 9.11791 18.3484 8.99564C18.2771 8.75108 18.1534 8.38757 17.9479 7.93947C17.5374 7.0444 16.7993 5.8084 15.4959 4.50536C14.1925 3.20233 12.9562 2.46443 12.0608 2.05408C11.6126 1.84864 11.249 1.72492 11.0043 1.65368C10.882 1.61807 10.7283 1.5828 10.67 1.56982C10.2414 1.49842 9.94049 1.09218 10.01 0.662992Z" fill="white"/>
<path fill-rule="evenodd" clip-rule="evenodd" d="M10.0354 3.66326C10.1741 3.17781 10.68 2.89671 11.1655 3.03541L10.9144 3.9144C11.1655 3.03541 11.1655 3.03541 11.1655 3.03541L11.1673 3.03592L11.1692 3.03646L11.1732 3.03764L11.1827 3.04046L11.2068 3.04797C11.2251 3.05385 11.2482 3.0615 11.2755 3.07122C11.3302 3.09065 11.4026 3.11827 11.4913 3.15629C11.6689 3.2324 11.9115 3.34993 12.2096 3.52631C12.8061 3.87939 13.6205 4.46589 14.5773 5.42267C15.5341 6.37946 16.1205 7.19389 16.4736 7.79049C16.65 8.08852 16.7675 8.33115 16.8437 8.50873C16.8817 8.59746 16.9094 8.66981 16.9288 8.72455C16.9385 8.75192 16.9461 8.77487 16.952 8.79325L16.9595 8.81737L16.9623 8.82682L16.9635 8.83088L16.964 8.83275C16.964 8.83275 16.9646 8.83451 16.0856 9.08564L16.9646 8.83451C17.1033 9.31995 16.8221 9.82589 16.3368 9.9646C15.8554 10.1021 15.3539 9.82699 15.2102 9.3491L15.2057 9.33596C15.1992 9.31765 15.1858 9.28159 15.1632 9.22894C15.1181 9.1237 15.0364 8.95156 14.9003 8.72169C14.6285 8.26249 14.1377 7.56865 13.2845 6.71548C12.4314 5.86233 11.7375 5.37149 11.2784 5.09972C11.0485 4.96367 10.8764 4.88188 10.7711 4.83678C10.7184 4.81422 10.6824 4.80076 10.6641 4.79427L10.6509 4.78977C10.1731 4.64609 9.8979 4.14458 10.0354 3.66326Z" fill="white"/>
</svg>
