<svg width="64" height="64" viewBox="0 0 64 64" fill="none" xmlns="http://www.w3.org/2000/svg">
<path fill-rule="evenodd" clip-rule="evenodd" d="M48 0V14.2222L60.8 14.2222L60.8 56.8888L64 56.8889V64L48 63.9998V64H16L15.9999 63.9998L0 64V56.8889L3.19995 56.8888L3.2 24.8889L15.9999 24.8888L16 0H48ZM41.6 7.11111H22.4V56.8889H28.8V46.2222H35.2V56.8889H41.6V7.11111ZM54.4 21.3333H48V56.8889H54.4V21.3333ZM16 32H9.6V56.8889H16V32ZM35.2 28.4444V35.5556H28.8V28.4444H35.2ZM35.2 14.2222V21.3333H28.8V14.2222H35.2Z" fill="#FC6601"/>
</svg>
