<svg width="50" height="50" viewBox="0 0 50 50" fill="none" xmlns="http://www.w3.org/2000/svg">
<path fill-rule="evenodd" clip-rule="evenodd" d="M37.5 0V11.1111L47.5 11.1111L47.5 44.4444L50 44.4444V50L37.5 49.9999V50H12.5L12.4999 49.9999L0 50V44.4444L2.49996 44.4444L2.5 19.4444L12.4999 19.4444L12.5 0H37.5ZM32.5 5.55556H17.5V44.4444H22.5V36.1111H27.5V44.4444H32.5V5.55556ZM42.5 16.6667H37.5V44.4444H42.5V16.6667ZM12.5 25H7.5V44.4444H12.5V25ZM27.5 22.2222V27.7778H22.5V22.2222H27.5ZM27.5 11.1111V16.6667H22.5V11.1111H27.5Z" fill="white"/>
</svg>
