<svg width="72" height="73" viewBox="0 0 72 73" fill="none" xmlns="http://www.w3.org/2000/svg">
<path d="M70.2681 60.6111H54.7468V53.6261C54.7468 52.697 53.9911 51.9422 53.0638 51.9422H47.7975L57.7293 31.6157C58.2064 30.6384 58.1476 29.5063 57.5718 28.5842C56.9968 27.6639 56.0044 27.1139 54.9186 27.1139H45.0196V21.3536H46.709C47.8251 21.3536 48.7329 20.4458 48.7329 19.3315V5.19419C48.7329 2.33012 46.4028 0 43.5387 0H42.7929C39.9288 0 37.5987 2.33012 37.5987 5.19419V19.3315C37.5987 20.4458 38.5065 21.3536 39.6226 21.3536H42.2857V27.1139H32.2959C31.226 27.1139 30.2435 27.6496 29.665 28.5486C29.0865 29.4476 29.0054 30.5655 29.4479 31.5374L38.731 51.9423H33.0758V45.0054C33.0758 44.0496 32.2988 43.2735 31.3438 43.2735H1.73195C0.777005 43.2735 0 44.0496 0 45.0054V70.2823C0 71.2381 0.777005 72.0143 1.73195 72.0143H70.2681C71.2239 72.0143 72 71.2381 72 70.2823V62.3432C72.0001 61.3872 71.224 60.6111 70.2681 60.6111ZM40.3327 5.19404C40.3327 3.83762 41.4363 2.734 42.7928 2.734H43.5386C44.895 2.734 45.9986 3.83762 45.9986 5.19404V6.57897H40.3327V5.19404ZM40.3327 9.31311H45.9986V18.6193H40.3327V9.31311ZM31.9637 30.0296C32.0074 29.9619 32.1079 29.848 32.2958 29.848H42.2855V35.9181C42.2855 36.6729 42.897 37.2852 43.6526 37.2852C44.4074 37.2852 45.0196 36.6729 45.0196 35.9181V29.848H54.9186C55.1092 29.848 55.2097 29.9637 55.2533 30.0332C55.2961 30.1026 55.3566 30.245 55.273 30.4159L43.5575 54.3916C43.3759 54.7654 43.0154 54.7582 42.8445 54.3809L31.9363 30.4052C31.8587 30.2343 31.9201 30.0972 31.9637 30.0296ZM40.3558 55.5131C40.8703 56.6434 41.9614 57.3466 43.204 57.3466C44.409 57.3466 45.4852 56.6737 46.0138 55.5914L46.5701 54.4531C46.7792 54.5821 47.0115 54.6765 47.2749 54.6765H52.0126V60.6112H37.4098V54.6765H39.9749L40.3558 55.5131ZM34.6757 60.6111H20.0721V54.6763H34.6757V60.6111ZM2.73415 60.6111V54.6763H17.3378V60.6111H2.73415ZM30.3412 51.9422H15.7375V46.0075H30.3412V51.9422ZM2.73415 46.0075H13.0034V51.9422H2.73415V46.0075ZM2.73415 63.3454H8.66888V69.2801H2.73415V63.3454ZM11.403 63.3454H26.0067V69.2801H11.403V63.3454ZM28.7409 63.3454H43.3446V69.2801H28.7409V63.3454ZM46.0787 63.3454H60.597V69.2801H46.0787V63.3454ZM69.2659 69.2801H63.4157V63.3454H69.2659V69.2801Z" fill="#FC6601"/>
</svg>
