<svg id="cate-icon-1-3" xmlns="http://www.w3.org/2000/svg" width="42" height="42" viewBox="0 0 42 42">
  <g id="Group_3" data-name="Group 3">
    <g id="Group_2" data-name="Group 2">
      <path id="Path_3" data-name="Path 3" d="M30.767,11.643a.82.82,0,1,0,.24.58A.826.826,0,0,0,30.767,11.643Z"/>
    </g>
  </g>
  <g id="Group_5" data-name="Group 5">
    <g id="Group_4" data-name="Group 4">
      <path id="Path_4" data-name="Path 4" d="M12.3,23.133H5.742a.82.82,0,0,0-.82.82v6.562a.82.82,0,0,0,.82.82H12.3a.82.82,0,0,0,.82-.82V23.953A.82.82,0,0,0,12.3,23.133Zm-.82,6.562H6.562V24.773h4.922Z"/>
    </g>
  </g>
  <g id="Group_7" data-name="Group 7">
    <g id="Group_6" data-name="Group 6">
      <path id="Path_5" data-name="Path 5" d="M41.494,17.207a.82.82,0,0,0-.894.178l-8.359,8.359h0L22.5,35.488h0l-5.11,5.11a.82.82,0,0,0,.58,1.4H41.18a.82.82,0,0,0,.82-.82V17.965A.82.82,0,0,0,41.494,17.207ZM40.359,40.359H19.945l3.13-3.13.783.783a.82.82,0,0,0,1.16-1.16l-.783-.783,2.088-2.088.783.783a.82.82,0,0,0,1.16-1.16l-.783-.783,2.088-2.088.783.783a.82.82,0,1,0,1.16-1.16l-.783-.783,2.088-2.088.783.783a.82.82,0,0,0,1.16-1.16l-.783-.783,2.088-2.088.783.783a.82.82,0,0,0,1.16-1.16l-.783-.783,3.131-3.13Z"/>
    </g>
  </g>
  <g id="Group_9" data-name="Group 9">
    <g id="Group_8" data-name="Group 8">
      <path id="Path_6" data-name="Path 6" d="M37.392,27.109a.82.82,0,0,0-.894.178L27.287,36.5a.82.82,0,0,0,.58,1.4h9.211a.82.82,0,0,0,.82-.82V27.867A.82.82,0,0,0,37.392,27.109Zm-1.134,9.149h-6.41l6.41-6.41Z"/>
    </g>
  </g>
  <g id="Group_11" data-name="Group 11">
    <g id="Group_10" data-name="Group 10">
      <path id="Path_7" data-name="Path 7" d="M37.985,12.244a.82.82,0,0,0-.862-.19l-5.6,2.051a.821.821,0,0,0-.3.19L29.649,15.87,19.365,5.586a.82.82,0,0,0-1.16,0L5.826,17.965H2.8L18.785,1.98l8.772,8.772a.82.82,0,0,0,1.16-1.16L19.365.24a.82.82,0,0,0-1.16,0L.24,18.205a.82.82,0,0,0,.58,1.4h.82V41.18a.82.82,0,0,0,.82.82H15.5a.82.82,0,1,0,0-1.641H3.281V19.606H6.166a.821.821,0,0,0,.58-.24L18.785,7.326l9.7,9.7L16.324,29.195V21.82h5.742a.82.82,0,0,0,0-1.641H15.5a.82.82,0,0,0-.82.82v9.516a.817.817,0,0,0,.047.273L14,31.523a3.331,3.331,0,0,0,4.71,4.71l6.918-6.918a.82.82,0,0,0-1.16-1.16L19.223,33.4l-2.39-2.39L31.82,16.019l2.39,2.39-5.727,5.727a.82.82,0,0,0,1.16,1.16l6.291-6.291a.821.821,0,0,0,.19-.3l2.051-5.6A.82.82,0,0,0,37.985,12.244ZM18.063,34.556l-.517.517a1.69,1.69,0,0,1-2.39-2.39l.517-.517ZM35.034,16.912l-1.718-1.718,2.71-.992Z"/>
    </g>
  </g>
  <g id="Group_13" data-name="Group 13">
    <g id="Group_12" data-name="Group 12">
      <path id="Path_8" data-name="Path 8" d="M27.619,26.16a.821.821,0,1,0,.24.58A.826.826,0,0,0,27.619,26.16Z"/>
    </g>
  </g>
  <g id="Group_15" data-name="Group 15">
    <g id="Group_14" data-name="Group 14">
      <path id="Path_9" data-name="Path 9" d="M18.785,12.387A3.117,3.117,0,1,0,21.9,15.5,3.121,3.121,0,0,0,18.785,12.387Zm0,4.594A1.477,1.477,0,1,1,20.262,15.5,1.478,1.478,0,0,1,18.785,16.981Z"/>
    </g>
  </g>
</svg>
