<svg width="64" height="64" viewBox="0 0 64 64" fill="none" xmlns="http://www.w3.org/2000/svg">
<path fill-rule="evenodd" clip-rule="evenodd" d="M34.4862 18.8068L31.9732 10.6665L29.5137 18.7507H21.3333L27.9632 23.8033L25.3968 31.9998L32.0266 26.9472L38.6566 31.9998L36.0366 23.8595L42.6666 18.8068H34.4862Z" fill="#FC6601"/>
<path fill-rule="evenodd" clip-rule="evenodd" d="M11.9181 0H52.082V3.9727H64V18.0956C64 21.8412 62.512 25.4334 59.8637 28.082C57.704 30.2414 54.9173 31.6293 51.9317 32.0683C51.4927 35.054 50.105 37.8407 47.9453 40C45.3483 42.597 41.844 44.0783 38.1777 44.135V49.877C38.1777 50.346 38.3637 50.7957 38.6953 51.127C39.027 51.4587 39.4767 51.645 39.9453 51.645C42.1107 51.645 44.187 52.505 45.718 54.036C47.249 55.567 48.1093 57.6437 48.1093 59.8087V64H15.8908V59.8087C15.8908 57.6437 16.7509 55.567 18.2819 54.036C19.8129 52.505 21.8894 51.645 24.0546 51.645C24.5235 51.645 24.9732 51.4587 25.3047 51.127C25.6362 50.7957 25.8225 50.346 25.8225 49.877V44.135C22.1559 44.0783 18.6516 42.597 16.0546 40C13.8951 37.8407 12.5073 35.054 12.0683 32.0683C9.08257 31.6293 6.2959 30.2414 4.1365 28.082C1.48793 25.4334 0 21.8412 0 18.0956V3.9727H11.9181V0ZM16.3277 4.40967V30.0137C16.3277 32.5898 17.3511 35.0603 19.1727 36.882C20.9943 38.7037 23.4649 39.727 26.041 39.727H30.2321V49.877C30.2321 51.5153 29.5813 53.0867 28.4228 54.2453C27.2643 55.4037 25.693 56.0547 24.0546 56.0547C23.059 56.0547 22.1041 56.45 21.4 57.1543C20.7476 57.8067 20.3602 58.6743 20.3068 59.5903H43.6933C43.64 58.6743 43.2523 57.8067 42.6 57.1543C41.896 56.45 40.941 56.0547 39.9453 56.0547C38.307 56.0547 36.7357 55.4037 35.5773 54.2453C34.4187 53.0867 33.768 51.5153 33.768 49.877V39.727H37.959C40.535 39.727 43.0057 38.7037 44.8273 36.882C46.649 35.0603 47.6723 32.5898 47.6723 30.0137V4.40967H16.3277ZM11.9181 8.38237H4.40967V18.0956C4.40967 20.6717 5.43303 23.1423 7.2546 24.9639C8.54707 26.2563 10.1663 27.147 11.9181 27.5553V8.38237ZM52.082 27.5553V8.38237H59.5903V18.0956C59.5903 20.6717 58.567 23.1423 56.7453 24.9639C55.453 26.2563 53.8337 27.147 52.082 27.5553Z" fill="#FC6601"/>
</svg>
