<svg width="50" height="60" viewBox="0 0 50 60" fill="none" xmlns="http://www.w3.org/2000/svg">
<mask id="path-1-outside-1_149_16" maskUnits="userSpaceOnUse" x="0" y="0" width="50" height="60" fill="black">
<rect fill="white" width="50" height="60"/>
<path d="M10.9832 58.5156C8.96759 58.0469 1.70196 55.1406 1.09259 51.1094C0.670715 48.4844 1.70196 45.9062 3.95196 44.0312C5.63946 42.625 9.85821 39.9531 11.5926 39.0625C12.2488 38.7344 13.1863 38.3594 14.0301 37.9844C16.4207 36.9531 17.3582 36.4844 17.5926 36.0625C17.8738 35.4062 17.8738 34.9375 17.6395 33.6719V33.5781L17.5457 33.4844C16.5613 32.4531 14.1707 29.5469 13.5613 27.7656C12.952 25.9844 12.2957 22.375 12.2488 20.7344V20.3594H7.37384C7.46759 19.6094 7.79571 18.0156 8.31134 17.125C9.06134 15.8125 10.2332 14.6875 10.4207 14.5938L10.6082 14.5V14.1719C10.6082 13.0938 11.2176 9.34375 13.9363 6.625C17.2176 3.34375 21.8113 1 24.8113 1H24.9988C27.9988 1 32.5926 3.39062 35.8738 6.625C38.5926 9.34375 39.202 13.0938 39.202 14.1719V14.4062L39.3895 14.5C39.577 14.5938 40.7488 15.7187 41.4988 17.0312C42.0145 17.9219 42.2957 19.5156 42.4363 20.2656H37.5145V20.6406C37.5145 22.2812 36.8113 25.8906 36.202 27.6719C35.5926 29.4531 33.202 32.3594 32.2176 33.3906L32.1238 33.4844V33.5781C31.8895 34.8438 31.8426 35.3125 32.1707 35.9688C32.3582 36.4375 33.2957 36.8594 35.7332 37.8906C36.577 38.2656 37.4676 38.6406 38.1707 38.9688C39.952 39.8594 44.1238 42.5312 45.8113 43.9375C48.0613 45.8125 49.0926 48.3906 48.6707 51.0156C48.0145 55.0469 40.7957 57.9531 38.7801 58.4219C37.2801 57.9062 29.2176 57.2031 26.3582 57.2031H25.5145C25.327 57.2031 25.1395 57.25 24.8582 57.25C24.6238 57.25 24.3895 57.2031 24.202 57.2031H23.3582C20.5457 57.2969 12.4832 58 10.9832 58.5156ZM38.3582 56.2187L38.4988 56.1719C39.202 56.0312 45.577 54.5781 46.4676 50.0312C46.9363 47.4531 43.9363 45.2031 42.4832 44.1719C41.4988 43.4219 40.6551 42.9062 39.577 42.3438L39.1082 42.1094L36.6707 55.8438L37.0457 55.8906C37.6551 55.9844 38.077 56.0781 38.2176 56.125L38.3582 56.2187ZM10.1863 42.3438C8.92071 43 8.12384 43.5625 7.28009 44.1719C5.82697 45.25 2.82696 47.5 3.29572 50.0312C4.18634 54.5781 10.5145 56.0312 11.2645 56.1719L11.4051 56.2187L11.4988 56.125C11.6395 56.0781 12.1082 55.9844 12.6707 55.8906L13.0457 55.8438L10.6082 42.1094L10.1863 42.3438ZM25.7488 55C28.4207 55.0469 30.8582 55.1875 32.7332 55.375L33.1082 55.4219L35.2645 40.3281L34.7957 40.0938C34.4207 39.9062 33.9988 39.7656 33.577 39.5781C31.9832 38.9219 30.3426 38.2656 29.6863 35.9688C29.5926 35.5469 29.5457 35.125 29.5926 34.6562C29.6395 34.0937 29.827 33.625 30.0145 33.0156C30.0613 32.7812 30.1551 32.5937 30.2488 32.3125C31.327 31.375 32.8738 29.125 33.6707 27.5781L34.1863 26.5C34.5613 25.5156 34.8895 23.2187 35.077 21.4844L35.1238 21.0625H14.6395L14.6863 21.4844C14.9676 24.0156 15.2957 25.7031 15.577 26.5L16.0926 27.5781C16.9363 29.1719 18.4832 31.4219 19.5613 32.3594C19.6551 32.5938 19.702 32.8281 19.7957 33.0156C19.9832 33.5781 20.1707 34.0937 20.2176 34.6562C20.2645 35.125 20.2645 35.5469 20.1238 35.9688C19.4676 38.2656 17.827 38.9219 16.2332 39.5781C15.8113 39.7656 15.3895 39.9062 15.0145 40.0938L14.5457 40.3281L16.702 55.4219L17.077 55.375C18.9988 55.1875 21.3895 55.0469 24.0613 55H25.7488ZM12.9051 14.9688C12.5301 15.1563 11.9676 15.4844 11.3582 16.5156C11.0301 17.0312 10.9832 17.4531 10.9363 17.7344L10.8895 18.1562H38.827L38.7801 17.7344C38.7801 17.4531 38.6863 17.0781 38.4051 16.5156C37.7957 15.4844 37.1863 15.1563 36.8582 14.9688C36.8582 13.6094 36.9051 10.8906 34.4207 8.40625C31.1863 5.125 27.577 3.20312 24.9051 3.20312C21.3426 3.20312 17.7332 6.0625 15.3895 8.40625C12.9051 10.8906 12.9051 13.6563 12.9051 14.9688Z"/>
</mask>
<path d="M10.9832 58.5156C8.96759 58.0469 1.70196 55.1406 1.09259 51.1094C0.670715 48.4844 1.70196 45.9062 3.95196 44.0312C5.63946 42.625 9.85821 39.9531 11.5926 39.0625C12.2488 38.7344 13.1863 38.3594 14.0301 37.9844C16.4207 36.9531 17.3582 36.4844 17.5926 36.0625C17.8738 35.4062 17.8738 34.9375 17.6395 33.6719V33.5781L17.5457 33.4844C16.5613 32.4531 14.1707 29.5469 13.5613 27.7656C12.952 25.9844 12.2957 22.375 12.2488 20.7344V20.3594H7.37384C7.46759 19.6094 7.79571 18.0156 8.31134 17.125C9.06134 15.8125 10.2332 14.6875 10.4207 14.5938L10.6082 14.5V14.1719C10.6082 13.0938 11.2176 9.34375 13.9363 6.625C17.2176 3.34375 21.8113 1 24.8113 1H24.9988C27.9988 1 32.5926 3.39062 35.8738 6.625C38.5926 9.34375 39.202 13.0938 39.202 14.1719V14.4062L39.3895 14.5C39.577 14.5938 40.7488 15.7187 41.4988 17.0312C42.0145 17.9219 42.2957 19.5156 42.4363 20.2656H37.5145V20.6406C37.5145 22.2812 36.8113 25.8906 36.202 27.6719C35.5926 29.4531 33.202 32.3594 32.2176 33.3906L32.1238 33.4844V33.5781C31.8895 34.8438 31.8426 35.3125 32.1707 35.9688C32.3582 36.4375 33.2957 36.8594 35.7332 37.8906C36.577 38.2656 37.4676 38.6406 38.1707 38.9688C39.952 39.8594 44.1238 42.5312 45.8113 43.9375C48.0613 45.8125 49.0926 48.3906 48.6707 51.0156C48.0145 55.0469 40.7957 57.9531 38.7801 58.4219C37.2801 57.9062 29.2176 57.2031 26.3582 57.2031H25.5145C25.327 57.2031 25.1395 57.25 24.8582 57.25C24.6238 57.25 24.3895 57.2031 24.202 57.2031H23.3582C20.5457 57.2969 12.4832 58 10.9832 58.5156ZM38.3582 56.2187L38.4988 56.1719C39.202 56.0312 45.577 54.5781 46.4676 50.0312C46.9363 47.4531 43.9363 45.2031 42.4832 44.1719C41.4988 43.4219 40.6551 42.9062 39.577 42.3438L39.1082 42.1094L36.6707 55.8438L37.0457 55.8906C37.6551 55.9844 38.077 56.0781 38.2176 56.125L38.3582 56.2187ZM10.1863 42.3438C8.92071 43 8.12384 43.5625 7.28009 44.1719C5.82697 45.25 2.82696 47.5 3.29572 50.0312C4.18634 54.5781 10.5145 56.0312 11.2645 56.1719L11.4051 56.2187L11.4988 56.125C11.6395 56.0781 12.1082 55.9844 12.6707 55.8906L13.0457 55.8438L10.6082 42.1094L10.1863 42.3438ZM25.7488 55C28.4207 55.0469 30.8582 55.1875 32.7332 55.375L33.1082 55.4219L35.2645 40.3281L34.7957 40.0938C34.4207 39.9062 33.9988 39.7656 33.577 39.5781C31.9832 38.9219 30.3426 38.2656 29.6863 35.9688C29.5926 35.5469 29.5457 35.125 29.5926 34.6562C29.6395 34.0937 29.827 33.625 30.0145 33.0156C30.0613 32.7812 30.1551 32.5937 30.2488 32.3125C31.327 31.375 32.8738 29.125 33.6707 27.5781L34.1863 26.5C34.5613 25.5156 34.8895 23.2187 35.077 21.4844L35.1238 21.0625H14.6395L14.6863 21.4844C14.9676 24.0156 15.2957 25.7031 15.577 26.5L16.0926 27.5781C16.9363 29.1719 18.4832 31.4219 19.5613 32.3594C19.6551 32.5938 19.702 32.8281 19.7957 33.0156C19.9832 33.5781 20.1707 34.0937 20.2176 34.6562C20.2645 35.125 20.2645 35.5469 20.1238 35.9688C19.4676 38.2656 17.827 38.9219 16.2332 39.5781C15.8113 39.7656 15.3895 39.9062 15.0145 40.0938L14.5457 40.3281L16.702 55.4219L17.077 55.375C18.9988 55.1875 21.3895 55.0469 24.0613 55H25.7488ZM12.9051 14.9688C12.5301 15.1563 11.9676 15.4844 11.3582 16.5156C11.0301 17.0312 10.9832 17.4531 10.9363 17.7344L10.8895 18.1562H38.827L38.7801 17.7344C38.7801 17.4531 38.6863 17.0781 38.4051 16.5156C37.7957 15.4844 37.1863 15.1563 36.8582 14.9688C36.8582 13.6094 36.9051 10.8906 34.4207 8.40625C31.1863 5.125 27.577 3.20312 24.9051 3.20312C21.3426 3.20312 17.7332 6.0625 15.3895 8.40625C12.9051 10.8906 12.9051 13.6563 12.9051 14.9688Z" fill="#FC6601"/>
<path d="M10.9832 58.5156C8.96759 58.0469 1.70196 55.1406 1.09259 51.1094C0.670715 48.4844 1.70196 45.9062 3.95196 44.0312C5.63946 42.625 9.85821 39.9531 11.5926 39.0625C12.2488 38.7344 13.1863 38.3594 14.0301 37.9844C16.4207 36.9531 17.3582 36.4844 17.5926 36.0625C17.8738 35.4062 17.8738 34.9375 17.6395 33.6719V33.5781L17.5457 33.4844C16.5613 32.4531 14.1707 29.5469 13.5613 27.7656C12.952 25.9844 12.2957 22.375 12.2488 20.7344V20.3594H7.37384C7.46759 19.6094 7.79571 18.0156 8.31134 17.125C9.06134 15.8125 10.2332 14.6875 10.4207 14.5938L10.6082 14.5V14.1719C10.6082 13.0938 11.2176 9.34375 13.9363 6.625C17.2176 3.34375 21.8113 1 24.8113 1H24.9988C27.9988 1 32.5926 3.39062 35.8738 6.625C38.5926 9.34375 39.202 13.0938 39.202 14.1719V14.4062L39.3895 14.5C39.577 14.5938 40.7488 15.7187 41.4988 17.0312C42.0145 17.9219 42.2957 19.5156 42.4363 20.2656H37.5145V20.6406C37.5145 22.2812 36.8113 25.8906 36.202 27.6719C35.5926 29.4531 33.202 32.3594 32.2176 33.3906L32.1238 33.4844V33.5781C31.8895 34.8438 31.8426 35.3125 32.1707 35.9688C32.3582 36.4375 33.2957 36.8594 35.7332 37.8906C36.577 38.2656 37.4676 38.6406 38.1707 38.9688C39.952 39.8594 44.1238 42.5312 45.8113 43.9375C48.0613 45.8125 49.0926 48.3906 48.6707 51.0156C48.0145 55.0469 40.7957 57.9531 38.7801 58.4219C37.2801 57.9062 29.2176 57.2031 26.3582 57.2031H25.5145C25.327 57.2031 25.1395 57.25 24.8582 57.25C24.6238 57.25 24.3895 57.2031 24.202 57.2031H23.3582C20.5457 57.2969 12.4832 58 10.9832 58.5156ZM38.3582 56.2187L38.4988 56.1719C39.202 56.0312 45.577 54.5781 46.4676 50.0312C46.9363 47.4531 43.9363 45.2031 42.4832 44.1719C41.4988 43.4219 40.6551 42.9062 39.577 42.3438L39.1082 42.1094L36.6707 55.8438L37.0457 55.8906C37.6551 55.9844 38.077 56.0781 38.2176 56.125L38.3582 56.2187ZM10.1863 42.3438C8.92071 43 8.12384 43.5625 7.28009 44.1719C5.82697 45.25 2.82696 47.5 3.29572 50.0312C4.18634 54.5781 10.5145 56.0312 11.2645 56.1719L11.4051 56.2187L11.4988 56.125C11.6395 56.0781 12.1082 55.9844 12.6707 55.8906L13.0457 55.8438L10.6082 42.1094L10.1863 42.3438ZM25.7488 55C28.4207 55.0469 30.8582 55.1875 32.7332 55.375L33.1082 55.4219L35.2645 40.3281L34.7957 40.0938C34.4207 39.9062 33.9988 39.7656 33.577 39.5781C31.9832 38.9219 30.3426 38.2656 29.6863 35.9688C29.5926 35.5469 29.5457 35.125 29.5926 34.6562C29.6395 34.0937 29.827 33.625 30.0145 33.0156C30.0613 32.7812 30.1551 32.5937 30.2488 32.3125C31.327 31.375 32.8738 29.125 33.6707 27.5781L34.1863 26.5C34.5613 25.5156 34.8895 23.2187 35.077 21.4844L35.1238 21.0625H14.6395L14.6863 21.4844C14.9676 24.0156 15.2957 25.7031 15.577 26.5L16.0926 27.5781C16.9363 29.1719 18.4832 31.4219 19.5613 32.3594C19.6551 32.5938 19.702 32.8281 19.7957 33.0156C19.9832 33.5781 20.1707 34.0937 20.2176 34.6562C20.2645 35.125 20.2645 35.5469 20.1238 35.9688C19.4676 38.2656 17.827 38.9219 16.2332 39.5781C15.8113 39.7656 15.3895 39.9062 15.0145 40.0938L14.5457 40.3281L16.702 55.4219L17.077 55.375C18.9988 55.1875 21.3895 55.0469 24.0613 55H25.7488ZM12.9051 14.9688C12.5301 15.1563 11.9676 15.4844 11.3582 16.5156C11.0301 17.0312 10.9832 17.4531 10.9363 17.7344L10.8895 18.1562H38.827L38.7801 17.7344C38.7801 17.4531 38.6863 17.0781 38.4051 16.5156C37.7957 15.4844 37.1863 15.1563 36.8582 14.9688C36.8582 13.6094 36.9051 10.8906 34.4207 8.40625C31.1863 5.125 27.577 3.20312 24.9051 3.20312C21.3426 3.20312 17.7332 6.0625 15.3895 8.40625C12.9051 10.8906 12.9051 13.6563 12.9051 14.9688Z" stroke="#FC6601" stroke-width="1.4" mask="url(#path-1-outside-1_149_16)"/>
</svg>
