<svg xmlns="http://www.w3.org/2000/svg" width="47" height="38.554" viewBox="0 0 47 38.554">
  <g id="email_4_" data-name="email (4)" transform="translate(0 -4.223)">
    <g id="Group_17" data-name="Group 17">
      <g id="Group_16" data-name="Group 16">
        <path id="Path_10" data-name="Path 10" d="M35.692,15.536a.918.918,0,1,0-1.3,1.293l.006.006a.909.909,0,0,0,.648.27.919.919,0,0,0,.65-1.569Z" fill="#fc6601"/>
      </g>
    </g>
    <g id="Group_19" data-name="Group 19">
      <g id="Group_18" data-name="Group 18">
        <path id="Path_11" data-name="Path 11" d="M46.731,26.575l-8.526-8.526a.918.918,0,1,0-1.3,1.3l6.768,6.768H27.535a2.431,2.431,0,0,1-2.428-2.428V7.548l6.534,6.534a.918.918,0,1,0,1.3-1.3L24.648,4.492a.918.918,0,0,0-1.3,0L8.715,19.126a.918.918,0,0,0,0,1.3L30.8,42.508a.918.918,0,0,0,1.3,0L46.731,27.874a.918.918,0,0,0,0-1.3ZM23.271,7.167V18.858H11.58ZM30.53,39.643,11.58,20.693H23.271v2.994a4.269,4.269,0,0,0,4.264,4.264H30.53Zm1.836,0V27.952H44.056Z" fill="#fc6601"/>
      </g>
    </g>
    <g id="Group_21" data-name="Group 21">
      <g id="Group_20" data-name="Group 20">
        <path id="Path_12" data-name="Path 12" d="M6.3,23.316H.918a.918.918,0,1,0,0,1.836H6.3a.918.918,0,0,0,0-1.836Z" fill="#fc6601"/>
      </g>
    </g>
    <g id="Group_23" data-name="Group 23">
      <g id="Group_22" data-name="Group 22">
        <path id="Path_13" data-name="Path 13" d="M9.037,23.316H9.023a.918.918,0,0,0,0,1.836h.014a.918.918,0,1,0,0-1.836Z" fill="#fc6601"/>
      </g>
    </g>
    <g id="Group_25" data-name="Group 25">
      <g id="Group_24" data-name="Group 24">
        <path id="Path_14" data-name="Path 14" d="M3.857,13.678H.919a.918.918,0,1,0,0,1.836H3.857a.918.918,0,1,0,0-1.836Z" fill="#fc6601"/>
      </g>
    </g>
    <g id="Group_27" data-name="Group 27">
      <g id="Group_26" data-name="Group 26">
        <path id="Path_15" data-name="Path 15" d="M10.328,13.678H6.856a.918.918,0,0,0,0,1.836h3.472a.918.918,0,0,0,0-1.836Z" fill="#fc6601"/>
      </g>
    </g>
    <g id="Group_29" data-name="Group 29">
      <g id="Group_28" data-name="Group 28">
        <path id="Path_16" data-name="Path 16" d="M12.327,28.365H7.186a.918.918,0,0,0,0,1.836h5.141a.918.918,0,1,0,0-1.836Z" fill="#fc6601"/>
      </g>
    </g>
    <g id="Group_31" data-name="Group 31">
      <g id="Group_30" data-name="Group 30">
        <path id="Path_17" data-name="Path 17" d="M16.341,34.24H3.4a.918.918,0,1,0,0,1.836H16.341a.918.918,0,1,0,0-1.836Z" fill="#fc6601"/>
      </g>
    </g>
  </g>
</svg>
