<svg width="19" height="19" viewBox="0 0 19 19" fill="none" xmlns="http://www.w3.org/2000/svg">
<path d="M16.2266 2.7732C14.5384 1.08493 12.3267 0.110137 9.95765 -9.15527e-05V9.04218H18.9999C18.8897 6.67314 17.9149 4.46152 16.2266 2.7732Z" fill="#FC6601"/>
<path d="M9.50534 9.94693C9.25555 9.94693 9.05303 9.74445 9.05303 9.49462V0C6.68395 0.110229 4.47233 1.08502 2.78405 2.7733C0.988748 4.56864 0 6.95563 0 9.49462C0 10.2551 0.0893819 11.0018 0.261929 11.7233L3.40254 8.58263C3.57918 8.40599 3.86557 8.40599 4.04221 8.58263C4.21886 8.75928 4.21886 9.04566 4.04221 9.22231L0.554979 12.7095C0.974639 13.8803 1.62578 14.9631 2.48449 15.9021L5.75506 12.6315C5.93174 12.4549 6.21813 12.4549 6.39473 12.6315C6.57137 12.8082 6.57137 13.0945 6.39473 13.2712L3.12513 16.5408C4.06812 17.3966 5.15515 18.0435 6.32944 18.4586L9.81917 14.9688C9.99581 14.7922 10.2822 14.7922 10.4588 14.9688C10.6355 15.1455 10.6355 15.4319 10.4588 15.6085L7.31923 18.7481C8.02751 18.914 8.7598 19 9.50542 19C12.0444 19 14.4314 18.0112 16.2267 16.2159C17.915 14.5276 18.8898 12.316 19 9.94693H9.50534Z" fill="#FC6601"/>
</svg>
