<svg width="56" height="56" viewBox="0 0 56 56" fill="none" xmlns="http://www.w3.org/2000/svg">
<path d="M41.0229 15.5243C40.8441 15.3454 40.6088 15.234 40.3571 15.2092C40.1054 15.1843 39.8528 15.2475 39.6425 15.3879C39.4321 15.5284 39.2769 15.7374 39.2034 15.9795C39.1299 16.2215 39.1426 16.4815 39.2393 16.7152C39.336 16.949 39.5108 17.1419 39.7338 17.2612C39.9569 17.3806 40.2144 17.4189 40.4625 17.3696C40.7106 17.3204 40.9339 17.1866 41.0945 16.9911C41.255 16.7957 41.3428 16.5506 41.3429 16.2977C41.3422 16.0078 41.2272 15.7299 41.0229 15.5243Z" fill="white"/>
<path d="M16.4003 30.8444H7.65632C7.36635 30.8444 7.08826 30.9596 6.88322 31.1646C6.67818 31.3696 6.56299 31.6477 6.56299 31.9377V40.687C6.56299 40.977 6.67818 41.2551 6.88322 41.4601C7.08826 41.6652 7.36635 41.7804 7.65632 41.7804H16.4003C16.6903 41.7804 16.9684 41.6652 17.1734 41.4601C17.3785 41.2551 17.4937 40.977 17.4937 40.687V31.9377C17.4937 31.6477 17.3785 31.3696 17.1734 31.1646C16.9684 30.9596 16.6903 30.8444 16.4003 30.8444ZM15.307 39.5937H8.74965V33.031H15.3123L15.307 39.5937Z" fill="white"/>
<path d="M55.3258 22.943C55.1259 22.8602 54.906 22.8385 54.6938 22.8808C54.4816 22.923 54.2867 23.0273 54.1338 23.1803L42.9885 34.3257L30.0005 47.3177L23.1872 54.131C23.0342 54.2839 22.93 54.4788 22.8877 54.6909C22.8455 54.9031 22.8672 55.123 22.95 55.3228C23.0327 55.5226 23.1729 55.6934 23.3528 55.8136C23.5327 55.9337 23.7442 55.9978 23.9605 55.9977H54.9072C55.1971 55.9977 55.4752 55.8825 55.6803 55.6774C55.8853 55.4724 56.0005 55.1943 56.0005 54.9043V23.9537C56.0006 23.7374 55.9366 23.5259 55.8165 23.346C55.6964 23.1661 55.5256 23.0258 55.3258 22.943ZM53.8125 53.8123H26.5938L30.7672 49.639L31.8112 50.683C32.0163 50.8881 32.2944 51.0033 32.5845 51.0033C32.8745 51.0033 33.1527 50.8881 33.3578 50.683C33.5629 50.4779 33.6782 50.1997 33.6782 49.9097C33.6782 49.6196 33.5629 49.3414 33.3578 49.1363L32.3138 48.0923L35.0978 45.3083L36.1418 46.3523C36.3469 46.5574 36.6251 46.6727 36.9152 46.6727C37.2052 46.6727 37.4834 46.5574 37.6885 46.3523C37.8936 46.1472 38.0088 45.8691 38.0088 45.579C38.0088 45.289 37.8936 45.0108 37.6885 44.8057L36.6445 43.7617L39.4285 40.9777L40.4725 42.0217C40.574 42.1232 40.6946 42.2038 40.8273 42.2588C40.96 42.3137 41.1022 42.342 41.2458 42.342C41.3894 42.342 41.5317 42.3137 41.6644 42.2588C41.797 42.2038 41.9176 42.1232 42.0192 42.0217C42.1207 41.9201 42.2013 41.7996 42.2562 41.6669C42.3112 41.5342 42.3395 41.392 42.3395 41.2484C42.3395 41.1047 42.3112 40.9625 42.2562 40.8298C42.2013 40.6971 42.1207 40.5766 42.0192 40.475L40.9752 39.431L43.7592 36.647L44.8032 37.691C45.0083 37.8961 45.2864 38.0113 45.5765 38.0113C45.8665 38.0113 46.1447 37.8961 46.3498 37.691C46.5549 37.4859 46.6701 37.2077 46.6701 36.9177C46.6701 36.6276 46.5549 36.3494 46.3498 36.1443L45.3058 35.1004L48.0898 32.3163L49.1338 33.3603C49.3389 33.5654 49.6171 33.6807 49.9072 33.6807C50.1972 33.6807 50.4754 33.5654 50.6805 33.3603C50.8856 33.1552 51.0008 32.8771 51.0008 32.587C51.0008 32.297 50.8856 32.0188 50.6805 31.8137L49.6365 30.7697L53.8112 26.5963L53.8125 53.8123Z" fill="white"/>
<path d="M49.8563 36.1457C49.6564 36.0628 49.4365 36.0412 49.2243 36.0834C49.0121 36.1257 48.8172 36.2299 48.6643 36.383L36.383 48.667C36.23 48.8199 36.1258 49.0147 36.0835 49.2269C36.0413 49.439 36.063 49.6589 36.1458 49.8588C36.2285 50.0586 36.3687 50.2294 36.5486 50.3495C36.7285 50.4697 36.94 50.5337 37.1563 50.5337H49.4376C49.7276 50.5337 50.0057 50.4185 50.2107 50.2134C50.4158 50.0084 50.531 49.7303 50.531 49.4403V37.1563C50.5311 36.94 50.4671 36.7285 50.347 36.5486C50.2269 36.3687 50.0561 36.2285 49.8563 36.1457ZM48.3443 48.3443H39.7976L48.3443 39.7977V48.3443Z" fill="white"/>
<path d="M50.6471 16.3258C50.4997 16.1784 50.3131 16.0762 50.1095 16.0313C49.9058 15.9864 49.6936 16.0007 49.4978 16.0725L42.0311 18.8071C41.8809 18.8614 41.7444 18.9478 41.6311 19.0605L39.5325 21.1605L25.8205 7.44846C25.7189 7.34686 25.5984 7.26627 25.4657 7.21129C25.333 7.1563 25.1908 7.128 25.0471 7.128C24.9035 7.128 24.7613 7.1563 24.6286 7.21129C24.4959 7.26627 24.3753 7.34686 24.2738 7.44846L7.76846 23.9538H3.73379L25.0471 2.64046L36.7431 14.3365C36.9482 14.5416 37.2264 14.6568 37.5165 14.6568C37.8065 14.6568 38.0847 14.5416 38.2898 14.3365C38.4949 14.1314 38.6101 13.8532 38.6101 13.5631C38.6101 13.2731 38.4949 12.9949 38.2898 12.7898L25.8205 0.32046C25.7189 0.218866 25.5984 0.138273 25.4657 0.0832873C25.333 0.0283015 25.1908 0 25.0471 0C24.9035 0 24.7613 0.0283015 24.6286 0.0832873C24.4959 0.138273 24.3753 0.218866 24.2738 0.32046L0.32046 24.2738C0.167462 24.4267 0.0632583 24.6216 0.0210338 24.8337C-0.0211908 25.0458 0.000461593 25.2658 0.0832513 25.4656C0.166041 25.6654 0.306247 25.8362 0.48613 25.9563C0.666012 26.0765 0.877486 26.1405 1.09379 26.1405H2.18713V54.9071C2.18713 55.1971 2.30232 55.4752 2.50736 55.6802C2.7124 55.8853 2.99049 56.0005 3.28046 56.0005H20.6671C20.9573 56.0005 21.2355 55.8852 21.4407 55.68C21.6459 55.4749 21.7611 55.1966 21.7611 54.9065C21.7611 54.6163 21.6459 54.338 21.4407 54.1329C21.2355 53.9277 20.9573 53.8125 20.6671 53.8125H4.37513V26.1418H8.22179C8.51178 26.1418 8.78991 26.0267 8.99513 25.8218L25.0471 9.76846L37.9805 22.7018L21.7658 38.9271V29.0938H29.4218C29.7119 29.0938 29.9902 28.9785 30.1954 28.7734C30.4005 28.5682 30.5158 28.2899 30.5158 27.9998C30.5158 27.7096 30.4005 27.4314 30.1954 27.2262C29.9902 27.0211 29.7119 26.9058 29.4218 26.9058H20.6671C20.3772 26.9058 20.0991 27.021 19.894 27.226C19.689 27.4311 19.5738 27.7092 19.5738 27.9991V40.6871C19.5738 40.8111 19.595 40.9342 19.6365 41.0511L18.6671 42.0311C17.8587 42.8689 17.4115 43.9906 17.4218 45.1548C17.4322 46.3189 17.8993 47.4325 18.7225 48.2558C19.5457 49.079 20.6593 49.5461 21.8235 49.5564C22.9877 49.5668 24.1094 49.1196 24.9471 48.3111L34.1711 39.0871C34.3762 38.882 34.4915 38.6038 34.4915 38.3138C34.4915 38.0237 34.3762 37.7456 34.1711 37.5405C33.966 37.3354 33.6878 37.2201 33.3978 37.2201C33.1077 37.2201 32.8296 37.3354 32.6245 37.5405L25.6311 44.5338L22.4445 41.3471L42.4271 21.3591L45.6138 24.5458L37.9778 32.1818C37.8762 32.2833 37.7957 32.4039 37.7407 32.5366C37.6858 32.6693 37.6575 32.8115 37.6575 32.9551C37.6575 33.0987 37.6858 33.241 37.7407 33.3736C37.7957 33.5063 37.8762 33.6269 37.9778 33.7285C38.0793 33.83 38.1999 33.9106 38.3326 33.9655C38.4653 34.0205 38.6075 34.0488 38.7511 34.0488C38.8947 34.0488 39.037 34.0205 39.1697 33.9655C39.3023 33.9106 39.4229 33.83 39.5245 33.7285L47.9125 25.3405C48.0251 25.2272 48.1115 25.0907 48.1658 24.9405L50.9005 17.4738C50.972 17.2782 50.9861 17.0662 50.9412 16.8628C50.8963 16.6595 50.7943 16.4731 50.6471 16.3258ZM24.0845 46.0751L23.3951 46.7645C22.9719 47.1841 22.3997 47.419 21.8037 47.4178C21.2078 47.4165 20.6365 47.1792 20.2151 46.7578C19.7937 46.3364 19.5564 45.7652 19.5551 45.1692C19.5539 44.5732 19.7888 44.001 20.2085 43.5778L20.8978 42.8885L24.0845 46.0751ZM46.7125 22.5498L44.4218 20.2591L48.0351 18.9365L46.7125 22.5498Z" fill="white"/>
<path d="M36.8256 34.8803C36.6467 34.7011 36.4111 34.5894 36.159 34.5644C35.907 34.5394 35.654 34.6026 35.4433 34.7432C35.2326 34.8838 35.0772 35.0931 35.0036 35.3355C34.9299 35.5779 34.9426 35.8382 35.0395 36.0723C35.1363 36.3063 35.3113 36.4996 35.5347 36.619C35.7581 36.7385 36.0159 36.7768 36.2644 36.7274C36.5128 36.678 36.7364 36.544 36.8971 36.3482C37.0578 36.1524 37.1457 35.907 37.1456 35.6537C37.1449 35.3638 37.0299 35.086 36.8256 34.8803Z" fill="white"/>
<path d="M25.0471 16.5164C24.2248 16.5158 23.4208 16.7593 22.7369 17.2158C22.0529 17.6724 21.5199 18.3216 21.205 19.0813C20.8902 19.841 20.8079 20.677 20.9684 21.4835C21.1288 22.29 21.525 23.0308 22.1066 23.612C22.6883 24.1933 23.4293 24.589 24.2359 24.749C25.0425 24.9089 25.8785 24.826 26.6379 24.5107C27.3974 24.1954 28.0463 23.6619 28.5024 22.9777C28.9586 22.2935 29.2015 21.4893 29.2004 20.667C29.1976 19.5666 28.759 18.5121 27.9807 17.7342C27.2023 16.9564 26.1475 16.5185 25.0471 16.5164ZM25.0471 22.6417C24.6578 22.6417 24.2773 22.5263 23.9535 22.3102C23.6298 22.094 23.3774 21.7868 23.2282 21.4272C23.079 21.0677 23.0397 20.672 23.1152 20.2901C23.1908 19.9083 23.3778 19.5573 23.6527 19.2817C23.9276 19.0061 24.278 18.8181 24.6596 18.7415C25.0413 18.6649 25.4371 18.7032 25.797 18.8514C26.157 18.9996 26.4649 19.2512 26.6819 19.5744C26.899 19.8975 27.0154 20.2778 27.0164 20.667C27.017 20.926 26.9664 21.1826 26.8677 21.4221C26.769 21.6616 26.624 21.8792 26.4411 22.0626C26.2582 22.246 26.0409 22.3916 25.8017 22.4909C25.5626 22.5903 25.3061 22.6415 25.0471 22.6417Z" fill="white"/>
</svg>
